<?xml version="1.0" encoding="utf-8"?>
<!-- Generator: Adobe Illustrator 24.0.2, SVG Export Plug-In . SVG Version: 6.00 Build 0)  -->
<svg version="1.1" id="Capa_1" xmlns="http://www.w3.org/2000/svg" xmlns:xlink="http://www.w3.org/1999/xlink" x="0px" y="0px"
	 viewBox="0 0 50 50" style="enable-background:new 0 0 50 50;" xml:space="preserve">
<style type="text/css">
	.st0{fill:#FFFFFF;}
</style>
<path class="st0" d="M50,12.7v-0.2c0-1.5-0.2-3-0.5-4.5v0.2c-0.7-2.7-2.3-4.8-4.5-6.3l0,0c-1.2-0.7-2.5-1.3-3.8-1.5l0,0
	C40,0.2,39,0,37.8,0l0,0c0,0-0.2,0-0.3,0h-25c-0.3,0-0.7,0-1,0C9.8,0,8.3,0.3,6.8,0.8H7C4.2,2,2.2,4,1,6.7l0,0
	C0.7,7.5,0.3,8.5,0.2,9.5l0,0C0.2,10.3,0,11.2,0,12l0,0v0.2v25.5c0,0.3,0,0.7,0,0.8c0,1.8,0.5,3.5,1,5v-0.2c1.3,2.8,3.7,5,6.7,5.8
	l0,0c0.8,0.2,1.7,0.3,2.7,0.5l0,0C11.7,50,12.8,50,14,50h23c1.2,0,2.3,0,3.3-0.2h-0.2c1.8-0.2,3.5-0.8,4.8-1.7l0,0
	c1.7-1.2,3-2.7,3.8-4.5l0,0c0.3-0.8,0.7-1.7,0.8-2.7l0,0c0.2-1.2,0.3-2.5,0.3-3.7c0-0.2,0-0.3,0-0.5l0,0C50,28.5,50,20.7,50,12.7
	L50,12.7z M36.7,21v11.8V33c0,0.8-0.2,1.7-0.5,2.3l0,0c-0.5,1.2-1.7,2-2.8,2.3l0,0c-0.7,0.2-1.5,0.3-2.2,0.3l0,0H31
	c-2.2,0-3.8-1.7-3.8-3.8c0-1.5,0.8-2.8,2.2-3.5l0,0c0.7-0.3,1.3-0.5,2-0.7l0,0c0.8-0.2,1.5-0.3,2.3-0.5c0.5-0.2,1-0.5,1-1l0,0
	c0-0.2,0-0.3,0-0.3l0,0c0-3.8,0-7.5,0-11.3c0-0.2,0-0.3,0-0.3l0,0c0-0.3-0.3-0.5-0.7-0.5l0,0l0,0c-0.3,0-0.7,0-1,0.2l0,0
	c-1.5,0.3-3.2,0.7-4.8,1l-7.7,1.5c0,0,0,0-0.2,0c-0.5,0-0.8,0.5-0.8,1c0,0,0,0,0,0.2l0,0v0.3c0,5.5,0,10.8,0,16.2v0.2
	c0,0.8-0.2,1.7-0.5,2.3l0,0c-0.5,1.3-1.7,2.2-3,2.5l0,0c-0.5,0.2-1.3,0.3-2,0.3l0,0h-0.2c-1.8,0-3.5-1.3-3.8-3.2l0,0
	c0-0.2,0-0.5,0-0.7c0-1.7,1-3,2.5-3.7l0,0c0.7-0.3,1.5-0.5,2.2-0.7l0,0c0.7-0.2,1.2-0.2,1.8-0.3c0.7-0.2,1.3-0.7,1.3-1.5l0,0l0,0
	v-0.3c0-6.2,0-12.3,0-18.5l0,0c0-0.3,0-0.5,0.2-0.8l0,0c0.2-0.5,0.5-1,1.2-1l0,0c0.5-0.2,1-0.2,1.7-0.3c1.5-0.3,3-0.7,4.5-1l4.7-1
	c1.3-0.3,2.8-0.5,4.2-0.8c0.3-0.2,0.8-0.2,1.3-0.2l0,0c0,0,0,0,0.2,0c0.5,0,1,0.5,1,1c0,0.2,0,0.3,0,0.5l0,0
	C36.5,13.2,36.5,17,36.7,21L36.7,21z"/>
</svg>
