<?xml version="1.0" encoding="utf-8"?>
<!-- Generator: Adobe Illustrator 24.0.2, SVG Export Plug-In . SVG Version: 6.00 Build 0)  -->
<svg version="1.1" id="Capa_1" xmlns="http://www.w3.org/2000/svg" xmlns:xlink="http://www.w3.org/1999/xlink" x="0px" y="0px"
	 viewBox="0 0 800 800" style="enable-background:new 0 0 800 800;" xml:space="preserve">
<style type="text/css">
	.st0{opacity:0.66;}
	.st1{fill:#C7000B;}
</style>
<g class="st0">
	<path class="st1" d="M798.2,395.6L684.6,282.1V121.5c0-3.4-2.8-6.2-6.2-6.2H517.9L404.4,1.8c-2.3-2.3-6.4-2.3-8.7,0L282.1,115.3
		H121.5c-3.4,0-6.2,2.8-6.2,6.2v160.6L1.8,395.6c-2.4,2.4-2.4,6.3,0,8.7l113.5,113.6v160.6c0,3.4,2.8,6.2,6.2,6.2h160.6l113.5,113.6
		c1.2,1.2,2.7,1.8,4.4,1.8c1.6,0,3.2-0.6,4.4-1.8l113.5-113.6h160.6c3.4,0,6.2-2.8,6.2-6.2V517.9l113.6-113.6
		c1.2-1.2,1.8-2.7,1.8-4.4C800,398.3,799.4,396.8,798.2,395.6z M596.1,481.2v114.9H481.2L400,677.3l-81.2-81.2H203.9V481.2
		L122.7,400l81.2-81.2V203.9h114.9l81.2-81.2l81.2,81.2h114.9v114.9l81.2,81.2L596.1,481.2z"/>
	<path class="st1" d="M563.4,236.5h-95.7L400,168.9l-67.7,67.7h-95.7v95.7L168.9,400l67.7,67.7v95.7h95.7l67.7,67.7l67.7-67.7h95.7
		v-95.7l67.7-67.7l-67.7-67.7L563.4,236.5L563.4,236.5z M517.5,430h-45l31.8,31.8l1.6,44.1l-44.1-1.6L430,472.5v44.9l-30,32.4
		l-30-32.4v-45l-31.8,31.8l-44.1,1.6l1.6-44.1l31.8-31.8l-44.9,0l-32.4-30l32.4-30l44.9,0l-31.8-31.8L294,294l44.1,1.6l31.8,31.8
		v-44.9l30-32.4l30,32.4v44.9l31.8-31.8L506,294l-1.6,44.1l-31.8,31.8h45l32.3,30L517.5,430z"/>
	<polygon class="st1" points="371.1,330.2 330.3,371.1 330.3,428.8 371.1,469.7 428.9,469.7 469.7,428.8 469.7,371.1 428.9,330.2 	
		"/>
</g>
</svg>
