<?xml version="1.0" encoding="utf-8"?>
<!-- Generator: Adobe Illustrator 24.0.2, SVG Export Plug-In . SVG Version: 6.00 Build 0)  -->
<svg version="1.1" id="Capa_1" xmlns="http://www.w3.org/2000/svg" xmlns:xlink="http://www.w3.org/1999/xlink" x="0px" y="0px"
	 viewBox="0 0 24.1 50.5" style="enable-background:new 0 0 24.1 50.5;" xml:space="preserve">
<style type="text/css">
	.st0{fill:#FFFFFF;}
</style>
<g id="_x37_935ec95c421cee6d86eb22ecd11b7e3">
	<path class="st0" d="M14.7,12.4c0,0.5,0,2.2,0,4.6h8.2L22,24.2h-7.3c0,11.2,0,26.3,0,26.3H5c0,0,0-14.8,0-26.3H0V17h5
		c0-2.9,0-4.9,0-5.5c0-2.7-0.2-4,1-6.1s4.4-4.9,10.1-4.8s8,0.6,8,0.6l-1.2,7.8c0,0-3.6-1-5.4-0.6C15.7,8.6,14.7,9.7,14.7,12.4z"/>
</g>
</svg>
