<?xml version="1.0" encoding="utf-8"?>
<!-- Generator: Adobe Illustrator 24.0.2, SVG Export Plug-In . SVG Version: 6.00 Build 0)  -->
<svg version="1.1" id="Capa_1" xmlns="http://www.w3.org/2000/svg" xmlns:xlink="http://www.w3.org/1999/xlink" x="0px" y="0px"
	 viewBox="0 0 56.9 50" style="enable-background:new 0 0 56.9 50;" xml:space="preserve">
<style type="text/css">
	.st0{fill:#FFFFFF;}
</style>
<path class="st0" d="M56.9,30.5C56.9,13.7,44.2,0,28.5,0S0,13.7,0,30.5c0,4,0.7,7.9,2.1,11.6c1.6,4.5,5.7,7.8,10.6,7.9
	c1.4,0,2.6-1.2,2.6-2.6V32.9c0-1.4-1.2-2.6-2.6-2.6c-2.6,0-5,0.9-6.9,2.3c-0.1-0.8-0.1-1.5-0.1-2.3c0-13.7,10.2-24.8,22.8-24.8
	s22.8,11.2,22.8,24.8c0,0.8,0,1.6-0.1,2.3c-1.9-1.5-4.2-2.4-6.9-2.4c-1.4,0-2.6,1.2-2.6,2.6v14.4c0,1.4,1.2,2.6,2.6,2.6
	c2.8,0,5.7-1,7.6-3.1c2-2.1,2.9-4.4,3.7-7.2C56.4,36.6,56.9,33.6,56.9,30.5z"/>
</svg>
