<svg xmlns="http://www.w3.org/2000/svg" viewBox="0 0 57.88 41.03"><defs><style>.cls-1{fill:#fff;}</style></defs><title>Recurso 7</title><g id="Capa_2" data-name="Capa 2"><g id="CONTACT"><path class="cls-1" d="M51.13,0H6.75A6.75,6.75,0,0,0,0,6.75V34.28A6.75,6.75,0,0,0,6.75,41H51.13a6.75,6.75,0,0,0,6.75-6.75V6.75A6.75,6.75,0,0,0,51.13,0Zm3.53,36.1-1.28,1.52-18-14.68-2.79,2.65a5.41,5.41,0,0,1-7.3,0L22.5,22.94l-18,14.68L3.22,36.1l16.9-15.43-17-16,1-1.33L28.94,22.16,53.77,3.35l1,1.33-17,16Z"/></g></g></svg>