<?xml version="1.0" encoding="utf-8"?>
<!-- Generator: Adobe Illustrator 24.0.2, SVG Export Plug-In . SVG Version: 6.00 Build 0)  -->
<svg version="1.1" id="Capa_1" xmlns="http://www.w3.org/2000/svg" xmlns:xlink="http://www.w3.org/1999/xlink" x="0px" y="0px"
	 viewBox="0 0 800 800" style="enable-background:new 0 0 800 800;" xml:space="preserve">
<style type="text/css">
	.st0{fill-rule:evenodd;clip-rule:evenodd;fill:#FFFFFF;}
</style>
<path class="st0" d="M100,600c0-86.9,55.4-160.8,132.7-188.4c21-7.5,43.7-11.6,67.3-11.6c23.6,0,46.3,4.1,67.3,11.6
	c11.4,4.1,22.4,9.2,32.7,15.2c10.4-6,21.3-11.1,32.7-15.2c21-7.5,43.7-11.6,67.3-11.6c23.6,0,46.3,4.1,67.3,11.6
	C644.6,439.2,700,513.1,700,600v100H525v-50h125v-50c0-82.8-67.2-150-150-150c-19.9,0-38.9,3.9-56.3,10.9
	c34.8,36,56.3,85,56.3,139.1v100H100V600z M300,375c-23,0-44.5-6.2-63-17c-37.1-21.7-62-61.9-62-108c0-69,56-125,125-125
	c40.9,0,77.2,19.6,100,50c22.8-30.4,59.1-50,100-50c69,0,125,56,125,125c0,46.1-24.9,86.3-62,108c-18.5,10.8-40,17-63,17
	c-23,0-44.5-6.2-63-17c-14.4-8.4-27-19.7-37-33c-10,13.3-22.6,24.6-37,33C344.5,368.8,323,375,300,375z M450,600v50H150v-50
	c0-82.8,67.2-150,150-150C382.8,450,450,517.2,450,600z M375,250c0,41.4-33.6,75-75,75c-41.4,0-75-33.6-75-75s33.6-75,75-75
	C341.4,175,375,208.6,375,250z M500,175c-41.4,0-75,33.6-75,75s33.6,75,75,75s75-33.6,75-75S541.4,175,500,175z"/>
</svg>
