<?xml version="1.0" encoding="utf-8"?>
<!-- Generator: Adobe Illustrator 24.0.2, SVG Export Plug-In . SVG Version: 6.00 Build 0)  -->
<svg version="1.1" id="Capa_1" xmlns="http://www.w3.org/2000/svg" xmlns:xlink="http://www.w3.org/1999/xlink" x="0px" y="0px"
	 viewBox="0 0 53.8 53" style="enable-background:new 0 0 53.8 53;" xml:space="preserve">
<style type="text/css">
	.st0{fill:#FFFFFF;}
</style>
<title>play</title>
<path class="st0" d="M0,49c0,1.8,0.7,3.2,2,4.3C2.8,53.8,3.6,54,4.4,54c0.7,0,1.3-0.2,2-0.6l35.2-20c0.7-0.4,1.3-1,1.7-1.8
	c0.5-0.8,0.7-1.7,0.6-2.7c0-1-0.3-1.9-0.6-2.6c-0.4-0.7-0.9-1.3-1.7-1.8L6.3,4.6C5.7,4.2,5,4,4.4,4C3.6,4,2.8,4.2,2,4.7
	C0.7,5.7,0,7.1,0,9V49L0,49z"/>
</svg>
