<?xml version="1.0" encoding="utf-8"?>
<!-- Generator: Adobe Illustrator 24.0.2, SVG Export Plug-In . SVG Version: 6.00 Build 0)  -->
<svg version="1.1" id="Capa_1" xmlns="http://www.w3.org/2000/svg" xmlns:xlink="http://www.w3.org/1999/xlink" x="0px" y="0px"
	 viewBox="0 0 50 50" style="enable-background:new 0 0 50 50;" xml:space="preserve">
<style type="text/css">
	.st0{fill-rule:evenodd;clip-rule:evenodd;fill:#FFFFFF;}
</style>
<title>spotify [#162]</title>
<desc>Created with Sketch.</desc>
<g id="Page-1">
	<g id="Dribbble-Light-Preview" transform="translate(-140.000000, -7479.000000)">
		<g id="icons" transform="translate(56.000000, 160.000000)">
			<path id="spotify-_x5B__x23_162_x5D_" class="st0" d="M124.3,7342.2c-8.1-4.8-21.3-5.2-29-2.9c-1.2,0.4-2.5-0.3-2.9-1.6
				c-0.4-1.2,0.3-2.5,1.6-2.9c8.8-2.7,23.5-2.2,32.8,3.3c1.1,0.7,1.5,2.1,0.8,3.2C126.9,7342.5,125.4,7342.8,124.3,7342.2
				L124.3,7342.2z M124,7349.3c-0.6,0.9-1.8,1.2-2.7,0.6c-6.7-4.1-17-5.3-24.9-2.9c-1,0.3-2.1-0.3-2.4-1.3s0.3-2.1,1.3-2.4
				c9.1-2.8,20.4-1.4,28.1,3.3C124.3,7347.1,124.6,7348.3,124,7349.3L124,7349.3z M121,7356.1c-0.4,0.7-1.4,1-2.1,0.5
				c-5.9-3.6-13.3-4.4-22-2.4c-0.8,0.2-1.7-0.3-1.9-1.2c-0.2-0.8,0.3-1.7,1.2-1.9c9.5-2.2,17.7-1.2,24.3,2.8
				C121.2,7354.4,121.4,7355.3,121,7356.1L121,7356.1z M109.5,7320c-13.8,0-25,11.2-25,25c0,13.8,11.2,25,25,25s25-11.2,25-25
				C134.5,7331.2,123.3,7320,109.5,7320L109.5,7320z"/>
		</g>
	</g>
</g>
</svg>
