<?xml version="1.0" encoding="utf-8"?>
<!-- Generator: Adobe Illustrator 24.0.2, SVG Export Plug-In . SVG Version: 6.00 Build 0)  -->
<svg version="1.1" id="Capa_1" xmlns="http://www.w3.org/2000/svg" xmlns:xlink="http://www.w3.org/1999/xlink" x="0px" y="0px"
	 viewBox="0 0 800 800" style="enable-background:new 0 0 800 800;" xml:space="preserve">
<style type="text/css">
	.st0{fill:#FFFFFF;}
</style>
<title>ic_fluent_ticket_24_filled</title>
<desc>Created with Sketch.</desc>
<g id="_xD83D__xDD0D_-Product-Icons">
	<g id="ic_fluent_ticket_24_filled">
		<path id="_xD83C__xDFA8_-Color" class="st0" d="M691.7,166.7c23,0,41.7,18.7,41.7,41.7v75.3c0,13.1-10.2,24-23.2,24.9
			c-47.8,3.4-85.1,43.3-85.1,91.4s37.3,88.1,85.1,91.4c13.1,0.9,23.2,11.8,23.2,24.9v75.3c0,23-18.7,41.7-41.7,41.7H108.3
			c-23,0-41.7-18.7-41.7-41.7l0-75.3c0-13.1,10.1-24,23.2-24.9c47.8-3.4,85.1-43.2,85.1-91.4s-37.3-88.1-85.1-91.4
			c-13.1-0.9-23.2-11.8-23.2-24.9l0-75.3c0-23,18.7-41.7,41.7-41.7H691.7z"/>
	</g>
</g>
</svg>
