<?xml version="1.0" encoding="utf-8"?>
<!-- Generator: Adobe Illustrator 24.0.2, SVG Export Plug-In . SVG Version: 6.00 Build 0)  -->
<svg version="1.1" id="Capa_1" xmlns="http://www.w3.org/2000/svg" xmlns:xlink="http://www.w3.org/1999/xlink" x="0px" y="0px"
	 viewBox="0 0 38.3 50" style="enable-background:new 0 0 38.3 50;" xml:space="preserve">
<style type="text/css">
	.st0{fill:#FFFFFF;}
</style>
<path class="st0" d="M27,3.5h-6.9v29.2c0,3.8-2.8,6.3-6.1,6.3s-6.3-2.5-6.3-6.3c0-4.4,3.5-6.8,8.1-6.3V19c-0.7-0.1-1.3-0.1-1.9-0.1
	C6.3,18.9,0,25,0,32.5c0,8,6.3,14.1,13.9,14.1c6.7,0,13.9-4.9,13.9-14.3V17c3,3,6.6,3.9,10.5,3.9v-6.8C33.5,13.7,28.2,10.6,27,3.5
	L27,3.5z"/>
</svg>
