<?xml version="1.0" encoding="utf-8"?>
<!-- Generator: Adobe Illustrator 24.0.2, SVG Export Plug-In . SVG Version: 6.00 Build 0)  -->
<svg version="1.1" id="Capa_1" xmlns="http://www.w3.org/2000/svg" xmlns:xlink="http://www.w3.org/1999/xlink" x="0px" y="0px"
	 viewBox="0 0 71.4 50" style="enable-background:new 0 0 71.4 50;" xml:space="preserve">
<style type="text/css">
	.st0{fill-rule:evenodd;clip-rule:evenodd;fill:#FFFFFF;}
</style>
<title>youtube [#168]</title>
<desc>Created with Sketch.</desc>
<g id="Page-1">
	<g id="Dribbble-Light-Preview" transform="translate(-300.000000, -7442.000000)">
		<g id="icons" transform="translate(56.000000, 160.000000)">
			<path id="youtube-_x5B__x23_168_x5D_" class="st0" d="M272.5,7316.2v-20c7.1,3.3,12.6,6.6,19.1,10.1
				C286.2,7309.2,279.6,7312.6,272.5,7316.2 M312.1,7286.2c-1.2-1.6-3.3-2.9-5.5-3.3c-6.5-1.2-47.4-1.2-53.9,0
				c-1.8,0.3-3.4,1.1-4.7,2.4c-5.8,5.3-4,34-2.6,38.6c0.6,2,1.3,3.5,2.3,4.4c1.2,1.3,2.9,2.1,4.8,2.5c5.4,1.1,33.2,1.7,54,0.2
				c1.9-0.3,3.6-1.2,5-2.5C316.7,7323.2,316.4,7292.9,312.1,7286.2"/>
		</g>
	</g>
</g>
</svg>
